# xmcd CD database file
# Copyright (C) 1993-1996 Ti Kan
#
# Track frame offsets:
#  150
#  20842
#  43428
#  54674
#  71187
#  88035
#  108309
#  128221
#  153566
#  169981
#  185922
#  205221
#  223810
#
# Disc length: 3314 seconds
#
# Revision: 1
# Processed by: cddbd v1.5.2PL0 Copyright (c) Steve Scherf et al.
# Submitted via: Advanced CD Ripper Pro 2.0
#
DISCID=d30cf00d
DTITLE=BÜLENT ERSOY - ÖPTÜM
DYEAR=1990
DGENRE=
TTITLE0=ANILAR
TTITLE1=BELALIM
TTITLE2=BÝR BÝRLERÝNE
TTITLE3=DEDÝLER ZAMANLA HEP AZALIRMIÞ SEVGÝLER
TTITLE4=BÝR GARÝP AÞIÐIM BEN
TTITLE5=GÖKYÜZÜNDE DUMAN DUMAN BULUTSUN
TTITLE6=KARADIR ÞU BAHTIM KARA
TTITLE7=NEDEN BENÝM KADERÝM
TTITLE8=ÖPTÜM BENÝM KADERÝM
TTITLE9=ÖYLE ÖZLEDÝM KÝ SEVGÝLÝM SENÝ
TTITLE10=SEVGÝ DOLU ÞU GÖNLÜM
TTITLE11=TELLÝ TELLÝ
TTITLE12=UNUT GÖZLERÝM
EXTD=
EXTT0=
EXTT1=
EXTT2=
EXTT3=
EXTT4=
EXTT5=
EXTT6=
EXTT7=
EXTT8=
EXTT9=
EXTT10=
EXTT11=
EXTT12=
PLAYORDER=
